<svg xmlns="http://www.w3.org/2000/svg" style="display:none">
  <!-- ═══ VERWALTUNG — Building ═══ -->
  <symbol id="icon-verwaltung" viewBox="0 0 48 48" fill="none" stroke="currentColor" stroke-width="1.5" stroke-linecap="round" stroke-linejoin="round">
    <rect x="8" y="16" width="32" height="26" rx="2"/>
    <path d="M8 22h32"/>
    <path d="M18 6l6-2 6 2v10H18z"/>
    <path d="M24 4v12"/>
    <rect x="14" y="28" width="6" height="6" rx="1"/>
    <rect x="28" y="28" width="6" height="6" rx="1"/>
    <rect x="14" y="36" width="6" height="6" rx="1"/>
    <rect x="28" y="36" width="6" height="6" rx="1"/>
    <path d="M21 42v-4h6v4"/>
  </symbol>

  <!-- ═══ VERMARKTUNG — Growth ═══ -->
  <symbol id="icon-vermarktung" viewBox="0 0 48 48" fill="none" stroke="currentColor" stroke-width="1.5" stroke-linecap="round" stroke-linejoin="round">
    <path d="M4 40l10-14 8 6 10-16 12-8"/>
    <path d="M38 8h6v6"/>
    <circle cx="14" cy="26" r="2"/>
    <circle cx="22" cy="32" r="2"/>
    <circle cx="32" cy="16" r="2"/>
    <path d="M4 44h40"/>
  </symbol>

  <!-- ═══ VERMIETUNG — Key ═══ -->
  <symbol id="icon-vermietung" viewBox="0 0 48 48" fill="none" stroke="currentColor" stroke-width="1.5" stroke-linecap="round" stroke-linejoin="round">
    <circle cx="16" cy="18" r="10"/>
    <circle cx="16" cy="18" r="4"/>
    <path d="M23 25l18 18"/>
    <path d="M35 37l4 4"/>
    <path d="M31 33l4 4"/>
    <path d="M38 40l3 3"/>
  </symbol>

  <!-- ═══ BEWERTUNG — Clipboard ═══ -->
  <symbol id="icon-bewertung" viewBox="0 0 48 48" fill="none" stroke="currentColor" stroke-width="1.5" stroke-linecap="round" stroke-linejoin="round">
    <rect x="10" y="8" width="28" height="36" rx="3"/>
    <path d="M18 4h12a2 2 0 012 2v4H16V6a2 2 0 012-2z"/>
    <path d="M18 20h12"/>
    <path d="M18 28h8"/>
    <path d="M18 36h10"/>
    <circle cx="34" cy="34" r="8"/>
    <path d="M31 34l2 2 4-4"/>
  </symbol>

  <!-- ═══ BAUMANAGEMENT — Crane ═══ -->
  <symbol id="icon-baumanagement" viewBox="0 0 48 48" fill="none" stroke="currentColor" stroke-width="1.5" stroke-linecap="round" stroke-linejoin="round">
    <path d="M12 44V8"/>
    <path d="M12 8l24-4"/>
    <path d="M36 4v8"/>
    <path d="M36 12l-4 16"/>
    <path d="M12 8l-6-4"/>
    <path d="M6 4v6"/>
    <rect x="28" y="28" width="8" height="8" rx="1"/>
    <path d="M32 36v8"/>
    <path d="M8 44h32"/>
    <path d="M12 20h4"/>
    <path d="M12 28h4"/>
  </symbol>

  <!-- ═══ RECHTSBERATUNG — Scales ═══ -->
  <symbol id="icon-rechtsberatung" viewBox="0 0 48 48" fill="none" stroke="currentColor" stroke-width="1.5" stroke-linecap="round" stroke-linejoin="round">
    <path d="M24 4v36"/>
    <path d="M24 10L8 16"/>
    <path d="M24 10l16 6"/>
    <path d="M4 28a8 8 0 008-8l-4-4-4 4a8 8 0 008 8z"/>
    <path d="M36 30a8 8 0 008-8l-4-4-4 4a8 8 0 008 8z"/>
    <path d="M16 44h16"/>
    <path d="M20 40h8"/>
  </symbol>

  <!-- ═══ SWISS CROSS ═══ -->
  <symbol id="icon-swiss-cross" viewBox="0 0 24 24">
    <rect x="7" y="3" width="10" height="18" rx="1" fill="currentColor"/>
    <rect x="3" y="7" width="18" height="10" rx="1" fill="currentColor"/>
  </symbol>

  <!-- ═══ STAR ═══ -->
  <symbol id="icon-star" viewBox="0 0 24 24" fill="currentColor">
    <path d="M12 2l3.09 6.26L22 9.27l-5 4.87L18.18 22 12 18.27 5.82 22 7 14.14l-5-4.87 6.91-1.01z"/>
  </symbol>

  <!-- ═══ HOUSE ═══ -->
  <symbol id="icon-house" viewBox="0 0 48 48" fill="none" stroke="currentColor" stroke-width="1.5" stroke-linecap="round" stroke-linejoin="round">
    <path d="M6 24L24 8l18 16"/>
    <path d="M10 22v20h28V22"/>
    <rect x="19" y="30" width="10" height="12" rx="1"/>
    <rect x="14" y="26" width="6" height="6" rx="1"/>
    <rect x="28" y="26" width="6" height="6" rx="1"/>
    <path d="M34 14V8h6v12"/>
  </symbol>

  <!-- ═══ HANDSHAKE ═══ -->
  <symbol id="icon-handshake" viewBox="0 0 48 48" fill="none" stroke="currentColor" stroke-width="1.5" stroke-linecap="round" stroke-linejoin="round">
    <path d="M4 20l8-8h8l4 4"/>
    <path d="M44 20l-8-8h-8l-4 4"/>
    <path d="M16 28l-4-4 4-4 6 2 6-2 4 4-4 4"/>
    <path d="M18 28l4 4 4-4"/>
    <path d="M22 32l4 4"/>
    <path d="M4 20v8l12 8"/>
    <path d="M44 20v8l-12 8"/>
  </symbol>

  <!-- ═══ CHECK ═══ -->
  <symbol id="icon-check" viewBox="0 0 20 20" fill="currentColor">
    <path fill-rule="evenodd" d="M16.704 4.153a.75.75 0 01.143 1.052l-8 10.5a.75.75 0 01-1.127.075l-4.5-4.5a.75.75 0 011.06-1.06l3.894 3.893 7.48-9.817a.75.75 0 011.05-.143z"/>
  </symbol>

  <!-- ═══ SHIELD ═══ -->
  <symbol id="icon-shield" viewBox="0 0 48 48" fill="none" stroke="currentColor" stroke-width="1.5" stroke-linecap="round" stroke-linejoin="round">
    <path d="M24 4L6 12v12c0 11.04 7.68 21.36 18 24 10.32-2.64 18-12.96 18-24V12L24 4z"/>
    <path d="M18 24l4 4 8-8"/>
  </symbol>

  <!-- ═══ MOUNTAIN ═══ -->
  <symbol id="icon-mountain" viewBox="0 0 48 48" fill="none" stroke="currentColor" stroke-width="1.5" stroke-linecap="round" stroke-linejoin="round">
    <path d="M4 40l14-28 6 8 4-4 16 24H4z"/>
    <path d="M18 12l4 5.3"/>
    <path d="M10 40l8-16 4 5"/>
  </symbol>

  <!-- ═══ PHONE ═══ -->
  <symbol id="icon-phone" viewBox="0 0 24 24" fill="none" stroke="currentColor" stroke-width="1.5" stroke-linecap="round" stroke-linejoin="round">
    <path d="M22 16.92v3a2 2 0 01-2.18 2 19.79 19.79 0 01-8.63-3.07 19.5 19.5 0 01-6-6 19.79 19.79 0 01-3.07-8.67A2 2 0 014.11 2h3a2 2 0 012 1.72 12.84 12.84 0 00.7 2.81 2 2 0 01-.45 2.11L8.09 9.91a16 16 0 006 6l1.27-1.27a2 2 0 012.11-.45 12.84 12.84 0 002.81.7A2 2 0 0122 16.92z"/>
  </symbol>

  <!-- ═══ MAIL ═══ -->
  <symbol id="icon-mail" viewBox="0 0 24 24" fill="none" stroke="currentColor" stroke-width="1.5" stroke-linecap="round" stroke-linejoin="round">
    <rect x="2" y="4" width="20" height="16" rx="2"/>
    <path d="M22 4l-10 8L2 4"/>
  </symbol>

  <!-- ═══ LOCATION ═══ -->
  <symbol id="icon-location" viewBox="0 0 24 24" fill="none" stroke="currentColor" stroke-width="1.5" stroke-linecap="round" stroke-linejoin="round">
    <path d="M21 10c0 7-9 13-9 13s-9-6-9-13a9 9 0 0118 0z"/>
    <circle cx="12" cy="10" r="3"/>
  </symbol>

  <!-- ═══ CLOCK ═══ -->
  <symbol id="icon-clock" viewBox="0 0 24 24" fill="none" stroke="currentColor" stroke-width="1.5" stroke-linecap="round" stroke-linejoin="round">
    <circle cx="12" cy="12" r="10"/>
    <path d="M12 6v6l4 2"/>
  </symbol>

  <!-- ═══ EDELWEISS FLOWER ═══ -->
  <symbol id="icon-edelweiss" viewBox="0 0 80 80">
    <g fill="none" stroke="currentColor" stroke-width="0.8">
      <!-- Petals -->
      <ellipse cx="40" cy="18" rx="5" ry="14" transform="rotate(0 40 40)"/>
      <ellipse cx="40" cy="18" rx="5" ry="14" transform="rotate(45 40 40)"/>
      <ellipse cx="40" cy="18" rx="5" ry="14" transform="rotate(90 40 40)"/>
      <ellipse cx="40" cy="18" rx="5" ry="14" transform="rotate(135 40 40)"/>
      <ellipse cx="40" cy="18" rx="5" ry="14" transform="rotate(180 40 40)"/>
      <ellipse cx="40" cy="18" rx="5" ry="14" transform="rotate(225 40 40)"/>
      <ellipse cx="40" cy="18" rx="5" ry="14" transform="rotate(270 40 40)"/>
      <ellipse cx="40" cy="18" rx="5" ry="14" transform="rotate(315 40 40)"/>
      <!-- Inner petals -->
      <ellipse cx="40" cy="26" rx="3" ry="8" transform="rotate(22.5 40 40)"/>
      <ellipse cx="40" cy="26" rx="3" ry="8" transform="rotate(67.5 40 40)"/>
      <ellipse cx="40" cy="26" rx="3" ry="8" transform="rotate(112.5 40 40)"/>
      <ellipse cx="40" cy="26" rx="3" ry="8" transform="rotate(157.5 40 40)"/>
      <ellipse cx="40" cy="26" rx="3" ry="8" transform="rotate(202.5 40 40)"/>
      <ellipse cx="40" cy="26" rx="3" ry="8" transform="rotate(247.5 40 40)"/>
      <ellipse cx="40" cy="26" rx="3" ry="8" transform="rotate(292.5 40 40)"/>
      <ellipse cx="40" cy="26" rx="3" ry="8" transform="rotate(337.5 40 40)"/>
      <!-- Center -->
      <circle cx="40" cy="40" r="6" fill="currentColor" opacity="0.15"/>
      <circle cx="40" cy="40" r="3" fill="currentColor" opacity="0.3"/>
    </g>
  </symbol>

  <!-- ═══ EDELWEISS SMALL ═══ -->
  <symbol id="icon-edelweiss-sm" viewBox="0 0 40 40">
    <g fill="none" stroke="currentColor" stroke-width="0.6">
      <ellipse cx="20" cy="9" rx="3" ry="8" transform="rotate(0 20 20)"/>
      <ellipse cx="20" cy="9" rx="3" ry="8" transform="rotate(51.4 20 20)"/>
      <ellipse cx="20" cy="9" rx="3" ry="8" transform="rotate(102.8 20 20)"/>
      <ellipse cx="20" cy="9" rx="3" ry="8" transform="rotate(154.3 20 20)"/>
      <ellipse cx="20" cy="9" rx="3" ry="8" transform="rotate(205.7 20 20)"/>
      <ellipse cx="20" cy="9" rx="3" ry="8" transform="rotate(257.1 20 20)"/>
      <ellipse cx="20" cy="9" rx="3" ry="8" transform="rotate(308.6 20 20)"/>
      <circle cx="20" cy="20" r="3" fill="currentColor" opacity="0.2"/>
    </g>
  </symbol>

  <!-- ═══ HELLEBARDE (Halberd) ═══ -->
  <symbol id="icon-hellebarde" viewBox="0 0 60 400">
    <g fill="none" stroke="currentColor" stroke-width="1.2" stroke-linecap="round" stroke-linejoin="round">
      <!-- Shaft -->
      <line x1="30" y1="80" x2="30" y2="390"/>
      <!-- Blade - axe head -->
      <path d="M30 30 L30 10 L28 4 L30 0 L32 4 L30 10" fill="currentColor" opacity="0.3"/>
      <!-- Spear tip -->
      <path d="M30 80 L22 60 L26 55 L24 30 L30 10 L36 30 L34 55 L38 60 Z" fill="currentColor" opacity="0.1"/>
      <!-- Axe blade right -->
      <path d="M30 45 Q50 35 55 50 Q52 65 38 70 L30 65" fill="currentColor" opacity="0.08"/>
      <path d="M30 45 Q50 35 55 50 Q52 65 38 70 L30 65"/>
      <!-- Hook left -->
      <path d="M30 55 Q16 48 12 56 Q14 64 24 66 L30 65"/>
      <!-- Cross guard -->
      <path d="M22 78h16"/>
      <!-- Grip wrapping -->
      <path d="M28 100h4"/>
      <path d="M28 120h4"/>
      <path d="M28 140h4"/>
      <path d="M28 160h4"/>
      <!-- Butt cap -->
      <path d="M26 386h8"/>
      <path d="M27 390h6"/>
    </g>
  </symbol>

  <!-- ═══ ARROW DOWN ═══ -->
  <symbol id="icon-arrow-down" viewBox="0 0 24 24" fill="none" stroke="currentColor" stroke-width="1.5" stroke-linecap="round" stroke-linejoin="round">
    <path d="M12 5v14"/>
    <path d="M19 12l-7 7-7-7"/>
  </symbol>
</svg>
