<svg xmlns="http://www.w3.org/2000/svg" width="200" height="200" viewBox="0 0 200 200" fill="#C4B49A" opacity="0.35">
  <g>
    <circle cx="10" cy="10" r="1.5"/><circle cx="10" cy="25" r="1.5"/><circle cx="10" cy="40" r="1.5"/><circle cx="10" cy="55" r="1.5"/><circle cx="10" cy="70" r="1.5"/><circle cx="10" cy="85" r="1.5"/><circle cx="10" cy="100" r="1.5"/><circle cx="10" cy="115" r="1.5"/><circle cx="10" cy="130" r="1.5"/><circle cx="10" cy="145" r="1.5"/><circle cx="10" cy="160" r="1.5"/><circle cx="10" cy="175" r="1.5"/><circle cx="10" cy="190" r="1.5"/>
    <circle cx="25" cy="10" r="1.5"/><circle cx="25" cy="25" r="1.5"/><circle cx="25" cy="40" r="1.5"/><circle cx="25" cy="55" r="1.5"/><circle cx="25" cy="70" r="1.5"/><circle cx="25" cy="85" r="1.5"/><circle cx="25" cy="100" r="1.5"/><circle cx="25" cy="115" r="1.5"/><circle cx="25" cy="130" r="1.5"/><circle cx="25" cy="145" r="1.5"/><circle cx="25" cy="160" r="1.5"/><circle cx="25" cy="175" r="1.5"/><circle cx="25" cy="190" r="1.5"/>
    <circle cx="40" cy="10" r="1.5"/><circle cx="40" cy="25" r="1.5"/><circle cx="40" cy="40" r="1.5"/><circle cx="40" cy="55" r="1.5"/><circle cx="40" cy="70" r="1.5"/><circle cx="40" cy="85" r="1.5"/><circle cx="40" cy="100" r="1.5"/><circle cx="40" cy="115" r="1.5"/><circle cx="40" cy="130" r="1.5"/><circle cx="40" cy="145" r="1.5"/><circle cx="40" cy="160" r="1.5"/><circle cx="40" cy="175" r="1.5"/><circle cx="40" cy="190" r="1.5"/>
    <circle cx="55" cy="10" r="1.5"/><circle cx="55" cy="25" r="1.5"/><circle cx="55" cy="40" r="1.5"/><circle cx="55" cy="55" r="1.5"/><circle cx="55" cy="70" r="1.5"/><circle cx="55" cy="85" r="1.5"/><circle cx="55" cy="100" r="1.5"/><circle cx="55" cy="115" r="1.5"/><circle cx="55" cy="130" r="1.5"/><circle cx="55" cy="145" r="1.5"/><circle cx="55" cy="160" r="1.5"/><circle cx="55" cy="175" r="1.5"/><circle cx="55" cy="190" r="1.5"/>
    <circle cx="70" cy="10" r="1.5"/><circle cx="70" cy="25" r="1.5"/><circle cx="70" cy="40" r="1.5"/><circle cx="70" cy="55" r="1.5"/><circle cx="70" cy="70" r="1.5"/><circle cx="70" cy="85" r="1.5"/><circle cx="70" cy="100" r="1.5"/><circle cx="70" cy="115" r="1.5"/><circle cx="70" cy="130" r="1.5"/><circle cx="70" cy="145" r="1.5"/><circle cx="70" cy="160" r="1.5"/><circle cx="70" cy="175" r="1.5"/><circle cx="70" cy="190" r="1.5"/>
    <circle cx="85" cy="10" r="1.5"/><circle cx="85" cy="25" r="1.5"/><circle cx="85" cy="40" r="1.5"/><circle cx="85" cy="55" r="1.5"/><circle cx="85" cy="70" r="1.5"/><circle cx="85" cy="85" r="1.5"/><circle cx="85" cy="100" r="1.5"/><circle cx="85" cy="115" r="1.5"/><circle cx="85" cy="130" r="1.5"/><circle cx="85" cy="145" r="1.5"/><circle cx="85" cy="160" r="1.5"/><circle cx="85" cy="175" r="1.5"/><circle cx="85" cy="190" r="1.5"/>
    <circle cx="100" cy="10" r="1.5"/><circle cx="100" cy="25" r="1.5"/><circle cx="100" cy="40" r="1.5"/><circle cx="100" cy="55" r="1.5"/><circle cx="100" cy="70" r="1.5"/><circle cx="100" cy="85" r="1.5"/><circle cx="100" cy="100" r="1.5"/><circle cx="100" cy="115" r="1.5"/><circle cx="100" cy="130" r="1.5"/><circle cx="100" cy="145" r="1.5"/><circle cx="100" cy="160" r="1.5"/><circle cx="100" cy="175" r="1.5"/><circle cx="100" cy="190" r="1.5"/>
    <circle cx="115" cy="10" r="1.5"/><circle cx="115" cy="25" r="1.5"/><circle cx="115" cy="40" r="1.5"/><circle cx="115" cy="55" r="1.5"/><circle cx="115" cy="70" r="1.5"/><circle cx="115" cy="85" r="1.5"/><circle cx="115" cy="100" r="1.5"/><circle cx="115" cy="115" r="1.5"/><circle cx="115" cy="130" r="1.5"/><circle cx="115" cy="145" r="1.5"/><circle cx="115" cy="160" r="1.5"/><circle cx="115" cy="175" r="1.5"/><circle cx="115" cy="190" r="1.5"/>
    <circle cx="130" cy="10" r="1.5"/><circle cx="130" cy="25" r="1.5"/><circle cx="130" cy="40" r="1.5"/><circle cx="130" cy="55" r="1.5"/><circle cx="130" cy="70" r="1.5"/><circle cx="130" cy="85" r="1.5"/><circle cx="130" cy="100" r="1.5"/><circle cx="130" cy="115" r="1.5"/><circle cx="130" cy="130" r="1.5"/><circle cx="130" cy="145" r="1.5"/><circle cx="130" cy="160" r="1.5"/><circle cx="130" cy="175" r="1.5"/><circle cx="130" cy="190" r="1.5"/>
    <circle cx="145" cy="10" r="1.5"/><circle cx="145" cy="25" r="1.5"/><circle cx="145" cy="40" r="1.5"/><circle cx="145" cy="55" r="1.5"/><circle cx="145" cy="70" r="1.5"/><circle cx="145" cy="85" r="1.5"/><circle cx="145" cy="100" r="1.5"/><circle cx="145" cy="115" r="1.5"/><circle cx="145" cy="130" r="1.5"/><circle cx="145" cy="145" r="1.5"/><circle cx="145" cy="160" r="1.5"/><circle cx="145" cy="175" r="1.5"/><circle cx="145" cy="190" r="1.5"/>
  </g>
</svg>
